# xmcd CD database file generated by LOLA_Freedb v0.9beta0
# 
# Track frame offsets:
#      150
#      10342
#      24217
#      39699
#      50483
#      59907
#      73156
#      87599
#      101357
#      114212
#      127282
#      141803
# 
# Disc length: 2028 seconds
# 
# Revision: 1 
# Processed by: cddbd v1.5.2PL0 Copyright (c) Steve Scherf et al.
# Submitted via: LOLA_Freedb v0.9beta0
# 
DISCID=ad07ea0c
DTITLE=Diverse - Elvis Goes To Country Heaven A Tribute
DYEAR=2007
DGENRE=
TTITLE0=NightHawk - Hound Dog
TTITLE1=Solly Aschkar - Pocketful Of Rainbows
TTITLE2=Johnny Lorenz - Suspicius Minds
TTITLE3=Michael Lonstar - His Latest Flame
TTITLE4=Suzie Candell - All Shook Up
TTITLE5=Mandy Strobel and Marty Wolfe - I Gotta Know
TTITLE6=Kevin Henderson - Devil In Disguise
TTITLE7=Ron and Sue - Love Me Tender
TTITLE8=Marco Gotthardi and Silver Dollar Band - Burning Love
TTITLE9=Tex Robinson - Can't Help Falling In Love
TTITLE10=Wild Bunch - Don't Be Cruel
TTITLE11=Rubber Duck - Viva Las Vegas
EXTD=Amazing Records
EXTT0=
EXTT1=
EXTT2=
EXTT3=
EXTT4=
EXTT5=
EXTT6=
EXTT7=
EXTT8=
EXTT9=
EXTT10=
EXTT11=
PLAYORDER=
